<!-- Generated by IcoMoon.io -->
<svg version="1.1" xmlns="http://www.w3.org/2000/svg" width="32" height="32" viewBox="0 0 32 32">
<title>code2</title>
<path d="M10.284 24.383l-0.833 0.833c-0.217 0.217-0.55 0.217-0.767 0l-7.766-7.766c-0.217-0.217-0.217-0.55 0-0.767l7.766-7.766c0.217-0.217 0.55-0.217 0.767 0l0.833 0.833c0.217 0.217 0.217 0.55 0 0.767l-6.55 6.55 6.55 6.55c0.217 0.217 0.217 0.55 0 0.767zM20.133 6.599l-6.217 21.517c-0.083 0.284-0.383 0.45-0.65 0.367l-1.034-0.284c-0.284-0.083-0.45-0.383-0.367-0.667l6.217-21.517c0.083-0.284 0.383-0.45 0.65-0.367l1.034 0.284c0.284 0.083 0.45 0.383 0.367 0.667zM31.084 17.45l-7.766 7.766c-0.217 0.217-0.55 0.217-0.767 0l-0.833-0.833c-0.217-0.217-0.217-0.55 0-0.767l6.55-6.55-6.55-6.55c-0.217-0.217-0.217-0.55 0-0.767l0.833-0.833c0.217-0.217 0.55-0.217 0.767 0l7.766 7.766c0.217 0.217 0.217 0.55 0 0.767z"></path>
</svg>
