<!-- Generated by IcoMoon.io -->
<svg version="1.1" xmlns="http://www.w3.org/2000/svg" width="32" height="32" viewBox="0 0 32 32">
<title>expand</title>
<path d="M15.768 18.857c0 0.143-0.072 0.304-0.178 0.41l-5.928 5.928 2.571 2.571c0.214 0.214 0.339 0.501 0.339 0.803 0 0.625-0.518 1.143-1.143 1.143h-8c-0.625 0-1.143-0.518-1.143-1.143v-8c0-0.625 0.518-1.143 1.143-1.143 0.304 0 0.59 0.125 0.803 0.339l2.571 2.571 5.928-5.928c0.107-0.107 0.267-0.178 0.41-0.178s0.304 0.072 0.41 0.178l2.035 2.035c0.107 0.107 0.178 0.267 0.178 0.41zM29.714 3.429v8c0 0.625-0.518 1.143-1.143 1.143-0.304 0-0.59-0.125-0.803-0.339l-2.571-2.571-5.928 5.928c-0.107 0.107-0.267 0.178-0.41 0.178s-0.304-0.072-0.41-0.178l-2.035-2.035c-0.107-0.107-0.178-0.267-0.178-0.41s0.072-0.304 0.178-0.41l5.928-5.928-2.571-2.571c-0.214-0.214-0.339-0.501-0.339-0.803 0-0.625 0.518-1.143 1.143-1.143h8c0.625 0 1.143 0.518 1.143 1.143z"></path>
</svg>
