<!-- Generated by IcoMoon.io -->
<svg version="1.1" xmlns="http://www.w3.org/2000/svg" width="32" height="32" viewBox="0 0 32 32">
<title>file</title>
<path d="M28.499 6.786c0.661 0.661 1.214 1.982 1.214 2.928v20.571c0 0.946-0.768 1.714-1.714 1.714h-24c-0.946 0-1.714-0.768-1.714-1.714v-28.571c0-0.946 0.768-1.714 1.714-1.714h16c0.946 0 2.267 0.553 2.928 1.214zM20.571 2.429v6.714h6.714c-0.107-0.304-0.267-0.607-0.393-0.733l-5.59-5.59c-0.125-0.125-0.429-0.286-0.733-0.393zM27.429 29.714v-18.286h-7.429c-0.946 0-1.714-0.768-1.714-1.714v-7.429h-13.714v27.429h22.857zM10.857 13.714c0.197-0.25 0.553-0.304 0.803-0.107l0.911 0.679c0.25 0.197 0.304 0.553 0.107 0.803l-3.25 4.339 3.25 4.339c0.197 0.25 0.143 0.607-0.107 0.803l-0.911 0.679c-0.25 0.197-0.607 0.143-0.803-0.107l-4.035-5.375c-0.143-0.197-0.143-0.482 0-0.679zM25.178 19.089c0.143 0.197 0.143 0.482 0 0.679l-4.035 5.375c-0.197 0.25-0.553 0.304-0.803 0.107l-0.911-0.679c-0.25-0.197-0.304-0.553-0.107-0.803l3.25-4.339-3.25-4.339c-0.197-0.25-0.143-0.607 0.107-0.803l0.911-0.679c0.25-0.197 0.607-0.143 0.803 0.107zM14.107 27.321c-0.321-0.054-0.518-0.358-0.464-0.661l2.464-14.839c0.054-0.321 0.358-0.518 0.661-0.464l1.125 0.178c0.321 0.054 0.518 0.358 0.464 0.661l-2.464 14.839c-0.054 0.321-0.358 0.518-0.661 0.464z"></path>
</svg>
