<!-- Generated by IcoMoon.io -->
<svg version="1.1" xmlns="http://www.w3.org/2000/svg" width="32" height="32" viewBox="0 0 32 32">
<title>laptop</title>
<path d="M6.933 22.4c-1.467 0-2.667-1.2-2.667-2.667v-11.733c0-1.467 1.2-2.667 2.667-2.667h18.133c1.467 0 2.667 1.2 2.667 2.667v11.733c0 1.467-1.2 2.667-2.667 2.667h-18.133zM6.4 8v11.733c0 0.284 0.25 0.533 0.533 0.533h18.133c0.284 0 0.533-0.25 0.533-0.533v-11.733c0-0.284-0.25-0.533-0.533-0.533h-18.133c-0.284 0-0.533 0.25-0.533 0.533zM29.333 23.467h2.667v1.6c0 0.883-1.2 1.6-2.667 1.6h-26.667c-1.467 0-2.667-0.717-2.667-1.6v-1.6h29.333zM17.333 25.067c0.15 0 0.267-0.116 0.267-0.267s-0.116-0.267-0.267-0.267h-2.667c-0.15 0-0.267 0.116-0.267 0.267s0.116 0.267 0.267 0.267h2.667z"></path>
</svg>
