<!-- Generated by IcoMoon.io -->
<svg version="1.1" xmlns="http://www.w3.org/2000/svg" width="17" height="32" viewBox="0 0 17 32">
<title>logo</title>
<path d="M8.652 20.897l1.223 1.223c0.679 0.679 0.679 1.773 0 2.445-0.679 0.679-1.773 0.679-2.445 0l-5.996-5.996c-2.223 3.364-1.86 7.933 1.1 10.893 3.381 3.381 8.857 3.381 12.238 0s3.381-8.857 0-12.238l-2.691-2.691-4.897 4.897 1.468 1.468z"></path>
<path d="M2.533 2.533c-3.381 3.381-3.381 8.857 0 12.238l2.691 2.691 4.897-4.897-1.468-1.468-1.223-1.217c-0.679-0.673-0.679-1.773 0-2.445 0.679-0.679 1.773-0.679 2.445 0l5.996 5.996c2.229-3.358 1.86-7.933-1.1-10.893-3.376-3.381-8.857-3.381-12.238-0.006z"></path>
</svg>
