<!-- Generated by IcoMoon.io -->
<svg version="1.1" xmlns="http://www.w3.org/2000/svg" width="32" height="32" viewBox="0 0 32 32">
<title>monitor2</title>
<path d="M29.867 21.867v-16c0-0.284-0.25-0.533-0.533-0.533h-26.667c-0.284 0-0.533 0.25-0.533 0.533v16c0 0.284 0.25 0.533 0.533 0.533h26.667c0.284 0 0.533-0.25 0.533-0.533zM32 5.867v16c0 1.467-1.2 2.667-2.667 2.667h-12.267v2.133h5.867c0.3 0 0.533 0.234 0.533 0.533v1.067c0 0.3-0.234 0.533-0.533 0.533h-13.867c-0.3 0-0.533-0.234-0.533-0.533v-1.067c0-0.3 0.234-0.533 0.533-0.533h5.867v-2.133h-12.267c-1.467 0-2.667-1.2-2.667-2.667v-16c0-1.467 1.2-2.667 2.667-2.667h26.667c1.467 0 2.667 1.2 2.667 2.667z"></path>
</svg>
