<!-- Generated by IcoMoon.io -->
<svg version="1.1" xmlns="http://www.w3.org/2000/svg" width="32" height="32" viewBox="0 0 32 32">
<title>search</title>
<path d="M21.714 14.857c0-4.41-3.59-8-8-8s-8 3.59-8 8 3.59 8 8 8 8-3.59 8-8zM30.857 29.714c0 1.25-1.035 2.286-2.286 2.286-0.607 0-1.197-0.25-1.607-0.679l-6.125-6.107c-2.089 1.447-4.59 2.214-7.125 2.214-6.946 0-12.571-5.625-12.571-12.571s5.625-12.571 12.571-12.571 12.571 5.625 12.571 12.571c0 2.536-0.768 5.035-2.214 7.125l6.125 6.125c0.41 0.41 0.661 1 0.661 1.607z"></path>
</svg>
