<!-- Generated by IcoMoon.io -->
<svg version="1.1" xmlns="http://www.w3.org/2000/svg" width="32" height="32" viewBox="0 0 32 32">
<title>users</title>
<path d="M9.884 16c-1.733 0.050-3.3 0.8-4.417 2.133h-2.234c-1.667 0-3.233-0.8-3.233-2.65 0-1.35-0.050-5.884 2.066-5.884 0.35 0 2.083 1.417 4.333 1.417 0.767 0 1.5-0.133 2.217-0.383-0.050 0.367-0.083 0.734-0.083 1.1 0 1.517 0.483 3.017 1.35 4.267zM27.733 26.617c0 2.7-1.783 4.317-4.45 4.317h-14.566c-2.667 0-4.45-1.617-4.45-4.317 0-3.766 0.883-9.55 5.766-9.55 0.566 0 2.634 2.317 5.967 2.317s5.401-2.317 5.967-2.317c4.883 0 5.766 5.783 5.766 9.55zM10.667 5.333c0 2.35-1.917 4.267-4.267 4.267s-4.267-1.917-4.267-4.267 1.917-4.267 4.267-4.267 4.267 1.917 4.267 4.267zM22.4 11.733c0 3.534-2.867 6.4-6.4 6.4s-6.4-2.867-6.4-6.4 2.867-6.4 6.4-6.4 6.4 2.867 6.4 6.4zM32 15.484c0 1.85-1.567 2.65-3.233 2.65h-2.234c-1.117-1.333-2.684-2.083-4.417-2.133 0.866-1.25 1.35-2.75 1.35-4.267 0-0.367-0.033-0.734-0.083-1.1 0.717 0.25 1.45 0.383 2.217 0.383 2.25 0 3.983-1.417 4.333-1.417 2.116 0 2.066 4.533 2.066 5.884zM29.867 5.333c0 2.35-1.917 4.267-4.267 4.267s-4.267-1.917-4.267-4.267 1.917-4.267 4.267-4.267 4.267 1.917 4.267 4.267z"></path>
</svg>
