<!-- Generated by IcoMoon.io -->
<svg version="1.1" xmlns="http://www.w3.org/2000/svg" width="32" height="32" viewBox="0 0 32 32">
<title>window</title>
<path d="M17.933 22.247l1.94 1.94c0.639 0.64 1.673 0.64 2.313 0s0.641-1.674 0-2.313l-1.933-1.94 1.933-1.933c0 0-7.319-3.127-7.619-3.24-0.16-0.060-0.327-0.093-0.5-0.093-0.773 0-1.4 0.62-1.4 1.387 0 0.18 0.033 0.347 0.093 0.5 0.113 0.287 3.24 7.633 3.24 7.633l1.933-1.94zM0 28.667c0 1.473 1.193 2.667 2.667 2.667h26.667c1.473 0 2.667-1.193 2.667-2.667v-24.667c0-1.473-1.193-2.667-2.667-2.667h-26.667c-1.473 0-2.667 1.193-2.667 2.667v24.667zM4.8 10.667h22.4c0.813 0 1.467 0.653 1.467 1.467v14.4c0 0.813-0.653 1.467-1.467 1.467h-22.4c-0.813 0-1.467-0.653-1.467-1.467v-14.4c0-0.813 0.653-1.467 1.467-1.467zM3.333 6.333c0-0.92 0.747-1.667 1.667-1.667s1.667 0.747 1.667 1.667-0.747 1.667-1.667 1.667-1.667-0.747-1.667-1.667zM9.333 6.333c0-0.92 0.747-1.667 1.667-1.667s1.667 0.747 1.667 1.667-0.747 1.667-1.667 1.667-1.667-0.747-1.667-1.667zM15.333 6.333c0-0.92 0.747-1.667 1.667-1.667s1.667 0.747 1.667 1.667-0.747 1.667-1.667 1.667-1.667-0.747-1.667-1.667z"></path>
</svg>
