<?xml version="1.0" encoding="utf-8"?>
<!-- Generator: Adobe Illustrator 22.0.1, SVG Export Plug-In . SVG Version: 6.00 Build 0)  -->
<svg version="1.1" id="Layer_1" xmlns="http://www.w3.org/2000/svg" xmlns:xlink="http://www.w3.org/1999/xlink" x="0px" y="0px"
	 viewBox="0 0 17.3 32" style="enable-background:new 0 0 17.3 32;" xml:space="preserve">
<style type="text/css">
	.st0{fill:#1C1910;}
</style>
<title>logo</title>
<path class="st0" d="M8.7,20.9l1.2,1.2c0.7,0.7,0.7,1.8,0,2.4c-0.7,0.7-1.8,0.7-2.4,0l-6-6c-2.2,3.4-1.9,7.9,1.1,10.9
	c3.4,3.4,8.9,3.4,12.2,0s3.4-8.9,0-12.2l-2.7-2.7l-4.9,4.9L8.7,20.9L8.7,20.9z"/>
<path class="st0" d="M2.5,2.5c-3.4,3.4-3.4,8.9,0,12.2l2.7,2.7l4.9-4.9l-1.5-1.5L7.4,9.9c-0.7-0.7-0.7-1.8,0-2.4
	c0.7-0.7,1.8-0.7,2.4,0l6,6c2.2-3.4,1.9-7.9-1.1-10.9C11.4-0.8,5.9-0.8,2.5,2.5L2.5,2.5z"/>
</svg>
